<svg width="799.9999999999999" height="600" xmlns="http://www.w3.org/2000/svg">
 <!-- Created with Method Draw - http://github.com/duopixel/Method-Draw/ -->

 <g>
  <title>background</title>
  <rect fill="#fff" id="canvas_background" height="602" width="802" y="-1" x="-1"/>
  <g display="none" overflow="visible" y="0" x="0" height="100%" width="100%" id="canvasGrid">
   <rect fill="url(#gridpattern)" stroke-width="0" y="0" x="0" height="100%" width="100%"/>
  </g>
 </g>
 <g>
  <title>Layer 1</title>
  <g id="svg_11">
   <path id="svg_4" fill="#202024" d="m490.107925,214.104537l-164.831388,0c-2.528697,0 -4.57865,2.049935 -4.57865,4.57865l0,164.831388c0,2.52833 2.049953,4.57865 4.57865,4.57865l164.831388,0c2.52833,0 4.57865,-2.050319 4.57865,-4.57865l0,-164.831388c0,-2.528715 -2.050319,-4.57865 -4.57865,-4.57865z"/>
   <path id="svg_5" fill="white" d="m438.585296,262.634561c0,2.62146 1.086971,3.929306 3.259083,3.929306c1.307662,0 2.738033,-0.414551 4.292026,-1.243561l1.967904,5.686683c-2.377235,1.272865 -4.618942,1.915066 -6.721458,1.915066c-3.065864,0 -5.436689,-0.846592 -7.112474,-2.533916c-1.670291,-1.687324 -2.505437,-4.104485 -2.505437,-7.239852l0,-11.215769l-5.535587,0l0,-5.581649l5.535587,0l0,-9.359218l6.826767,-2.066894l0,11.426112l9.979625,0l0,5.581649l-9.979625,0l0,10.702044l-0.00641,0zm-44.501911,-1.915066l-19.649733,0c0.344589,1.827431 1.109498,3.281243 2.300771,4.367208c1.191273,1.085964 2.575216,1.628992 4.163549,1.628992c2.931343,0 5.068565,-1.138527 6.411666,-3.415581l6.102241,1.290355c-1.103638,2.62146 -2.738765,4.600719 -4.910968,5.949406c-2.172295,1.342918 -4.706577,2.014331 -7.602939,2.014331c-3.725556,0 -6.861381,-1.272773 -9.413154,-3.824271c-2.551865,-2.551407 -3.824912,-5.826881 -3.824912,-9.82624c0,-3.99945 1.284678,-7.280694 3.854033,-9.849591c2.569355,-2.568989 5.734392,-3.853483 9.48916,-3.853483c3.515304,0 6.540143,1.231931 9.074426,3.695794c2.534374,2.463863 3.871523,5.628351 4.005861,9.487603l0,2.335478zm-17.039445,-8.325817c-1.226346,0.829102 -2.026327,1.996841 -2.405897,3.514846l12.461345,0c-0.414551,-1.588059 -1.173691,-2.773288 -2.277329,-3.567318c-1.103638,-0.794121 -2.376685,-1.19109 -3.824821,-1.19109c-1.413154,0 -2.727044,0.414551 -3.953298,1.243561zm-15.696435,-3.386278c1.897759,2.01424 2.843799,4.629931 2.843799,7.83526l0,15.717405l-6.826309,0l0,-14.275222c0,-1.827522 -0.472975,-3.292965 -1.424876,-4.396419c-0.945949,-1.103546 -2.213136,-1.652343 -3.80147,-1.652343c-4.274444,0 -6.411666,2.965958 -6.411666,8.892104l0,11.42602l-6.826309,0l0,-25.800508l6.826309,0l0,2.329525c2.067169,-2.066802 4.77663,-3.100204 8.116847,-3.100204c3.106522,-0.005861 5.605824,1.004189 7.503674,3.024381zm54.149492,23.552665l8.116114,0l-9.20217,-12.564547l9.20217,-13.23596l-8.116114,0l-6.155537,8.892104l-6.101783,-8.892104l-8.116847,0l9.203177,13.23596l-9.203177,12.564547l8.116847,0l6.101783,-8.430851l6.155537,8.430851zm-60.001372,8.553467l0,36.90529l6.826309,0l0,-36.90529l-6.826309,0zm37.389894,25.064902l-19.649733,0c0.344498,1.827797 1.109498,3.28106 2.300771,4.367116c1.191181,1.086056 2.575124,1.629084 4.163458,1.629084c2.931435,0 5.068657,-1.138252 6.411758,-3.415673l6.10215,1.290263c-1.103638,2.621735 -2.738674,4.600627 -4.910968,5.949497c-2.172203,1.343376 -4.706577,2.014606 -7.602939,2.014606c-3.725556,0 -6.86129,-1.272865 -9.413154,-3.824088c-2.551865,-2.552139 -3.824821,-5.82679 -3.824821,-9.826606c0,-3.99945 1.284678,-7.280694 3.854033,-9.849591c2.569355,-2.568989 5.734301,-3.853483 9.489068,-3.853483c3.515304,0 6.540143,1.231931 9.074517,3.695794c2.534283,2.463863 3.871523,5.628351 4.005861,9.487603l0,2.335478zm-17.039536,-8.325817c-1.226254,0.829102 -2.026236,1.996841 -2.405806,3.514846l12.461345,0c-0.414643,-1.588059 -1.173691,-2.773288 -2.27742,-3.567318c-1.103638,-0.794121 -2.376594,-1.19109 -3.824821,-1.19109c-1.407294,0.005861 -2.726952,0.42032 -3.953298,1.243561zm17.302442,-5.686683l11.842403,25.852887l5.068565,0l11.84222,-25.852887l-7.292873,0l-7.084087,15.927291l-7.082805,-15.927291l-7.293423,0zm55.439389,14.012499l-19.649733,0c0.344314,1.827797 1.109865,3.28106 2.301229,4.367116c1.191365,1.086056 2.575033,1.629084 4.162908,1.629084c2.931252,0 5.068565,-1.138252 6.411941,-3.415673l6.102424,1.290263c-1.103455,2.621735 -2.738948,4.600627 -4.91106,5.949497c-2.172111,1.343376 -4.706852,2.014606 -7.603306,2.014606c-3.725189,0 -6.860649,-1.272865 -9.412788,-3.824088c-2.552139,-2.552139 -3.825004,-5.82679 -3.825004,-9.826606c0,-3.99945 1.284769,-7.280694 3.854307,-9.849591c2.569538,-2.568989 5.734301,-3.853483 9.488794,-3.853483c3.515487,0 6.540143,1.231931 9.074884,3.695794c2.533825,2.463863 3.87079,5.628351 4.005403,9.487603l0,2.335478zm-17.038987,-8.325817c-1.227078,0.829102 -2.02651,1.996841 -2.406538,3.514846l12.461253,0c-0.41391,-1.588059 -1.17305,-2.773288 -2.276505,-3.567318c-1.10437,-0.794121 -2.377235,-1.19109 -3.825004,-1.19109c-1.412971,0.005861 -2.733454,0.42032 -3.953206,1.243561zm21.179002,-16.739085l0,36.90529l6.826767,0l0,-36.90529l-6.826767,0zm-83.298549,79.760535l-5.693459,0l-5.582473,-15.203864l-5.635127,15.203864l-5.687599,0l-9.570843,-25.852887l7.293514,0l5.378082,15.460268l5.535771,-15.460268l5.325611,0l5.535771,15.512465l5.378082,-15.512465l7.293514,0l-9.570843,25.852887zm17.121219,-11.840388l19.650008,0l0,-2.336027c-0.134612,-3.858886 -1.471578,-7.023649 -4.006135,-9.486962c-2.534283,-2.464229 -5.559122,-3.695886 -9.074426,-3.695886c-3.754767,0 -6.919805,1.283853 -9.48916,3.853392c-2.569355,2.568622 -3.854033,5.849683 -3.854033,9.849591c0,3.998993 1.273048,7.274559 3.824821,9.825782c2.551865,2.552139 5.68769,3.824088 9.413246,3.824088c2.896362,0 5.430645,-0.67123 7.602939,-2.01369c2.172295,-1.34887 3.807147,-3.327763 4.910602,-5.949497l-6.101875,-1.290263c-1.34301,2.276505 -3.480323,3.415673 -6.411666,3.415673c-1.588334,0 -2.972276,-0.543028 -4.163549,-1.629084c-1.191273,-1.086056 -1.956182,-2.540235 -2.300771,-4.367116zm0.204391,-4.811245c0.37957,-1.51828 1.179552,-2.685836 2.405897,-3.514571c1.220393,-0.823241 2.540143,-1.238067 3.953298,-1.243561c1.448135,0 2.721183,0.396511 3.824821,1.190449c1.103638,0.793938 1.862778,1.979808 2.277329,3.567684l-12.461345,0zm47.941301,4.811245l-19.648817,0c0.344314,1.826881 1.108949,3.28106 2.300314,4.367116c1.191365,1.086056 2.575033,1.629084 4.163824,1.629084c2.931252,0 5.068565,-1.139168 6.411025,-3.415673l6.102424,1.290263c-1.103455,2.621735 -2.738948,4.600627 -4.91106,5.949497c-2.172111,1.34246 -4.705936,2.01369 -7.60239,2.01369c-3.726105,0 -6.861564,-1.271949 -9.413704,-3.824088c-2.551224,-2.551224 -3.825004,-5.82679 -3.825004,-9.825782c0,-3.999908 1.284769,-7.280969 3.854307,-9.849591c2.569538,-2.569538 5.734301,-3.853392 9.488794,-3.853392c3.515487,0 6.540143,1.231657 9.074884,3.695886c2.53474,2.463314 3.871706,5.628076 4.005403,9.486962l0,2.336027zm-17.038987,-8.325817c-1.226162,0.828736 -2.02651,1.996291 -2.405623,3.514571l12.461253,0c-0.414826,-1.587876 -1.173966,-2.773746 -2.27742,-3.567684c-1.103455,-0.793938 -2.376319,-1.190449 -3.825004,-1.190449c-1.412971,0.005494 -2.732538,0.42032 -3.953206,1.243561zm26.762207,20.166205l0,-9.773586l10.347748,9.767175l9.307479,0l-13.44841,-12.926444l12.462169,-12.873331l-8.637165,0l-10.031821,10.135299l0,-21.257755l-6.826767,0l0,36.928641l6.826767,0z" clip-rule="evenodd" fill-rule="evenodd"/>
   <path id="svg_6" fill="#7159C1" d="m331.595622,255.453132l0,-7.082164l-19.558343,7.277947l-0.038827,-0.014835l0,0.029212l0,7.210641l0,0.029212l0.038836,-0.014743l19.558334,7.277855l0,-7.082164l-10.036583,-3.81548l10.036583,-3.81548zm152.187355,106.728599l0,-7.082255l10.029074,-3.812184l-10.029074,-3.813099l0,-7.082255l19.550834,7.275474l0.046702,-0.017399l0,0.034798l0,7.204963l0,0.034798l-0.046702,-0.017399l-19.550834,7.274559zm-19.544424,-46.945811l0,5.633571l21.72844,0l0,-5.633571l-21.72844,0zm-133.753803,6.721458l0,-5.634486l21.728531,0l0,5.634486l-21.728531,0zm144.900984,8.415558l-11.497905,36.905748l6.826767,0l11.497905,-36.905748l-6.826767,0z" clip-rule="evenodd" fill-rule="evenodd"/>
   <rect transform="matrix(0.9157299337712175,0,0,0.9157299337712175,0,0) " id="svg_7" fill="#7159C1" rx="5" height="22.5" width="36" y="269.715486" x="513.710117"/>
   <path stroke="null" id="svg_8" fill="white" d="m480.627373,259.934439l-1.164808,0l-0.434972,2.474852l-1.10437,0l0.434056,-2.474852l-1.369932,0l0,-1.038255l1.551247,0l0.302191,-1.714338l-1.401067,0l0,-1.050342l1.587876,0l0.440466,-2.511115l1.098876,0l-0.440466,2.511115l1.170303,0l0.441382,-2.511115l1.10437,0l-0.440466,2.511115l1.321398,0l0,1.050342l-1.509123,0l-0.301275,1.714338l1.351617,0l0,1.038255l-1.532932,0l-0.434972,2.474852l-1.10437,0l0.434972,-2.474852zm-0.98441,-1.038255l1.164808,0l0.302191,-1.714338l-1.171219,0l-0.295781,1.714338z"/>
   <path id="svg_9" fill="white" d="m490.478795,258.7754c0,1.215357 -0.251826,2.144914 -0.754561,2.788764c-0.503651,0.643941 -1.239898,0.96582 -2.209656,0.96582c-0.957854,0 -1.690437,-0.315835 -2.196836,-0.947689c-0.507314,-0.631762 -0.767382,-1.537236 -0.779286,-2.71633l0,-1.617729c0,-1.227353 0.253657,-2.159016 0.760972,-2.794808c0.510977,-0.635791 1.245393,-0.953733 2.203246,-0.953733c0.957854,0 1.689522,0.315927 2.196836,0.947689c0.507314,0.627824 0.766466,1.531192 0.779286,2.710286l0,1.617729zm-1.744466,-1.774593c0,-0.728463 -0.10073,-1.257572 -0.302191,-1.587601c-0.196882,-0.333967 -0.507314,-0.500996 -0.929466,-0.500996c-0.410247,0 -0.714269,0.158971 -0.912067,0.476821c-0.193219,0.313912 -0.295781,0.80685 -0.307685,1.478904l0,2.136856c0,0.716376 0.097067,1.249513 0.290286,1.599689c0.196882,0.346054 0.510977,0.519036 0.94137,0.519036c0.42673,0 0.734415,-0.166938 0.923972,-0.500996c0.18864,-0.333967 0.287539,-0.845036 0.295781,-1.533207l0,-2.088505z"/>
  </g>
  <text font-weight="bold" xml:space="preserve" text-anchor="start" font-family="Arvo, sans-serif" font-size="12" id="svg_16" y="262.452142" x="491.075452" fill-opacity="null" stroke-opacity="null" stroke-width="0" stroke="null" fill="#ffffff">2</text>
 </g>
</svg>